<svg width="1200" height="675" xmlns="http://www.w3.org/2000/svg">
  <defs>
    <linearGradient id="bgGradient" x1="0%" y1="0%" x2="100%" y2="100%">
      <stop offset="0%" style="stop-color:#1f2937"/>
      <stop offset="100%" style="stop-color:#111827"/>
    </linearGradient>
  </defs>
  <rect width="100%" height="100%" fill="url(#bgGradient)"/>
  <!-- Sidebar -->
  <rect x="0" y="0" width="200" height="675" fill="#111827"/>
  <rect x="20" y="20" width="160" height="40" rx="8" fill="#3b82f6" opacity="0.3"/>
  <rect x="20" y="80" width="120" height="12" rx="4" fill="#374151"/>
  <rect x="20" y="110" width="140" height="12" rx="4" fill="#374151"/>
  <rect x="20" y="140" width="100" height="12" rx="4" fill="#374151"/>
  <!-- Header -->
  <rect x="200" y="0" width="1000" height="60" fill="#1f2937"/>
  <text x="230" y="38" font-family="system-ui" font-size="18" fill="#60a5fa" font-weight="bold">Dashboard</text>
  <!-- Stats cards -->
  <rect x="230" y="90" width="220" height="100" rx="12" fill="#1f2937" stroke="#374151" stroke-width="1"/>
  <text x="255" y="130" font-family="system-ui" font-size="14" fill="#9ca3af">Meetings This Week</text>
  <text x="255" y="165" font-family="system-ui" font-size="32" fill="#ffffff" font-weight="bold">24</text>
  <rect x="480" y="90" width="220" height="100" rx="12" fill="#1f2937" stroke="#374151" stroke-width="1"/>
  <text x="505" y="130" font-family="system-ui" font-size="14" fill="#9ca3af">Drafts Generated</text>
  <text x="505" y="165" font-family="system-ui" font-size="32" fill="#ffffff" font-weight="bold">18</text>
  <rect x="730" y="90" width="220" height="100" rx="12" fill="#1f2937" stroke="#374151" stroke-width="1"/>
  <text x="755" y="130" font-family="system-ui" font-size="14" fill="#9ca3af">Emails Sent</text>
  <text x="755" y="165" font-family="system-ui" font-size="32" fill="#10b981" font-weight="bold">12</text>
  <!-- Meeting list -->
  <rect x="230" y="220" width="720" height="60" rx="8" fill="#1f2937" stroke="#374151" stroke-width="1"/>
  <circle cx="265" cy="250" r="20" fill="#3b82f6"/>
  <rect x="300" y="235" width="200" height="14" rx="4" fill="#ffffff"/>
  <rect x="300" y="255" width="120" height="10" rx="4" fill="#6b7280"/>
  <rect x="230" y="295" width="720" height="60" rx="8" fill="#1f2937" stroke="#374151" stroke-width="1"/>
  <circle cx="265" cy="325" r="20" fill="#8b5cf6"/>
  <rect x="300" y="310" width="180" height="14" rx="4" fill="#ffffff"/>
  <rect x="300" y="330" width="100" height="10" rx="4" fill="#6b7280"/>
  <rect x="230" y="370" width="720" height="60" rx="8" fill="#1f2937" stroke="#374151" stroke-width="1"/>
  <circle cx="265" cy="400" r="20" fill="#10b981"/>
  <rect x="300" y="385" width="220" height="14" rx="4" fill="#ffffff"/>
  <rect x="300" y="405" width="140" height="10" rx="4" fill="#6b7280"/>
</svg>
