<svg width="1200" height="675" xmlns="http://www.w3.org/2000/svg">
  <defs>
    <linearGradient id="bgGradient" x1="0%" y1="0%" x2="100%" y2="100%">
      <stop offset="0%" style="stop-color:#1f2937"/>
      <stop offset="100%" style="stop-color:#111827"/>
    </linearGradient>
  </defs>
  <rect width="100%" height="100%" fill="url(#bgGradient)"/>
  <!-- Header -->
  <rect x="0" y="0" width="1200" height="60" fill="#1f2937"/>
  <text x="30" y="38" font-family="system-ui" font-size="18" fill="#60a5fa" font-weight="bold">Draft Editor</text>
  <rect x="1020" y="15" width="100" height="30" rx="6" fill="#3b82f6"/>
  <text x="1045" y="36" font-family="system-ui" font-size="12" fill="#ffffff" font-weight="bold">Send</text>
  <!-- Meeting info panel -->
  <rect x="30" y="80" width="350" height="565" rx="12" fill="#1f2937" stroke="#374151" stroke-width="1"/>
  <text x="50" y="115" font-family="system-ui" font-size="14" fill="#9ca3af" font-weight="bold">Meeting Details</text>
  <rect x="50" y="135" width="310" height="12" rx="4" fill="#374151"/>
  <rect x="50" y="160" width="200" height="10" rx="4" fill="#4b5563"/>
  <text x="50" y="200" font-family="system-ui" font-size="14" fill="#9ca3af" font-weight="bold">Participants</text>
  <circle cx="70" cy="230" r="15" fill="#3b82f6"/>
  <rect x="95" y="222" width="100" height="12" rx="4" fill="#ffffff"/>
  <circle cx="70" cy="270" r="15" fill="#8b5cf6"/>
  <rect x="95" y="262" width="120" height="12" rx="4" fill="#ffffff"/>
  <text x="50" y="320" font-family="system-ui" font-size="14" fill="#9ca3af" font-weight="bold">Key Topics</text>
  <rect x="50" y="340" width="80" height="24" rx="12" fill="#3b82f6" opacity="0.2"/>
  <text x="65" y="357" font-family="system-ui" font-size="11" fill="#60a5fa">Pricing</text>
  <rect x="140" y="340" width="90" height="24" rx="12" fill="#10b981" opacity="0.2"/>
  <text x="155" y="357" font-family="system-ui" font-size="11" fill="#34d399">Timeline</text>
  <rect x="240" y="340" width="100" height="24" rx="12" fill="#f59e0b" opacity="0.2"/>
  <text x="255" y="357" font-family="system-ui" font-size="11" fill="#fbbf24">Next Steps</text>
  <!-- Email editor -->
  <rect x="400" y="80" width="770" height="565" rx="12" fill="#1f2937" stroke="#374151" stroke-width="1"/>
  <text x="420" y="115" font-family="system-ui" font-size="14" fill="#9ca3af">To:</text>
  <rect x="450" y="100" width="300" height="20" rx="4" fill="#374151"/>
  <text x="420" y="155" font-family="system-ui" font-size="14" fill="#9ca3af">Subject:</text>
  <rect x="490" y="140" width="450" height="20" rx="4" fill="#374151"/>
  <line x1="420" y1="180" x2="1150" y2="180" stroke="#374151" stroke-width="1"/>
  <!-- Email body -->
  <rect x="420" y="200" width="500" height="14" rx="4" fill="#e5e7eb"/>
  <rect x="420" y="230" width="700" height="12" rx="4" fill="#9ca3af"/>
  <rect x="420" y="255" width="650" height="12" rx="4" fill="#9ca3af"/>
  <rect x="420" y="280" width="600" height="12" rx="4" fill="#9ca3af"/>
  <rect x="420" y="320" width="680" height="12" rx="4" fill="#9ca3af"/>
  <rect x="420" y="345" width="620" height="12" rx="4" fill="#9ca3af"/>
  <rect x="420" y="370" width="550" height="12" rx="4" fill="#9ca3af"/>
  <rect x="420" y="410" width="300" height="14" rx="4" fill="#e5e7eb"/>
  <rect x="420" y="440" width="680" height="12" rx="4" fill="#9ca3af"/>
  <rect x="420" y="465" width="600" height="12" rx="4" fill="#9ca3af"/>
  <!-- AI badge -->
  <rect x="1030" y="90" width="120" height="30" rx="15" fill="#8b5cf6" opacity="0.2"/>
  <text x="1050" y="110" font-family="system-ui" font-size="11" fill="#a78bfa">AI Generated</text>
</svg>
